<svg width="198" height="40" viewBox="0 0 198 40" fill="none" xmlns="http://www.w3.org/2000/svg">
<path d="M19.9886 4.84431C21.3263 4.84431 22.4107 3.75988 22.4107 2.42216C22.4107 1.08444 21.3263 0 19.9886 0C18.6508 0 17.5664 1.08444 17.5664 2.42216C17.5664 3.75988 18.6508 4.84431 19.9886 4.84431Z" fill="#FFD150"/>
<path d="M17.5554 5.15098C18.2584 5.77889 19.1767 6.11108 20.1188 6.07821C21.0608 6.04535 21.9538 5.64998 22.6113 4.97461L23.7871 7.71423L20.2597 11.5356L18.2961 8.94883L17.9434 9.63079L19.1192 13.7814L18.4137 14.6044L16.1797 8.97234L17.5554 5.15098Z" fill="#FFD150"/>
<path d="M20.0003 39.9986C21.338 39.9986 22.4224 38.9142 22.4224 37.5765C22.4224 36.2387 21.338 35.1543 20.0003 35.1543C18.6626 35.1543 17.5781 36.2387 17.5781 37.5765C17.5781 38.9142 18.6626 39.9986 20.0003 39.9986Z" fill="#FFD150"/>
<path d="M22.4466 34.85C21.7443 34.2158 20.8228 33.8796 19.8771 33.9125C18.9314 33.9455 18.0355 34.3449 17.3789 35.0264L16.2031 32.2867L19.7305 28.4654L21.6824 31.0404L22.0469 30.3584L20.8711 26.2078L21.5648 25.3848L23.8106 31.0169L22.4466 34.85Z" fill="#FFD150"/>
<path d="M2.42216 22.4205C3.75988 22.4205 4.84431 21.3361 4.84431 19.9983C4.84431 18.6606 3.75988 17.5762 2.42216 17.5762C1.08444 17.5762 0 18.6606 0 19.9983C0 21.3361 1.08444 22.4205 2.42216 22.4205Z" fill="#FFD150"/>
<path d="M5.14903 22.4447C5.7777 21.7397 6.11022 20.8194 6.07737 19.8755C6.04452 18.9315 5.64881 18.0365 4.97266 17.377L7.71228 16.2012L11.5336 19.7286L8.94688 21.6804L9.62884 22.0449L13.7912 20.8691L14.6025 21.5628L8.97039 23.8086L5.14903 22.4447Z" fill="#FFD150"/>
<path d="M37.5784 22.4088C38.9161 22.4088 40.0006 21.3243 40.0006 19.9866C40.0006 18.6489 38.9161 17.5645 37.5784 17.5645C36.2407 17.5645 35.1562 18.6489 35.1562 19.9866C35.1562 21.3243 36.2407 22.4088 37.5784 22.4088Z" fill="#FFD150"/>
<path d="M34.8519 17.5535C34.2507 18.2221 33.916 19.0882 33.9113 19.9874C33.9105 20.4773 34.009 20.9622 34.201 21.4129C34.393 21.8636 34.6745 22.2706 35.0283 22.6094L32.2769 23.7852L28.4673 20.2578L31.0541 18.2942L30.3604 17.9415L26.2098 19.1173L25.3867 18.4118L31.0188 16.166L34.8519 17.5535Z" fill="#FFD150"/>
<path d="M7.56278 9.99471C8.9005 9.99471 9.98494 8.91027 9.98494 7.57255C9.98494 6.23483 8.9005 5.15039 7.56278 5.15039C6.22506 5.15039 5.14062 6.23483 5.14062 7.57255C5.14062 8.91027 6.22506 9.99471 7.56278 9.99471Z" fill="#FFD150"/>
<path d="M7.76172 11.2292C8.64861 11.1663 9.48329 10.7865 10.1133 10.1592C10.4585 9.81447 10.7303 9.40335 10.9122 8.95067C11.0941 8.49799 11.1823 8.01313 11.1716 7.52539L13.97 8.61889L14.1346 13.8395L10.9717 13.4044L11.1951 14.1452L14.9929 16.2263L15.0752 17.2963L9.50191 14.9447L7.76172 11.2292Z" fill="#FFD150"/>
<path d="M32.43 34.8404C33.7677 34.8404 34.8521 33.756 34.8521 32.4183C34.8521 31.0805 33.7677 29.9961 32.43 29.9961C31.0922 29.9961 30.0078 31.0805 30.0078 32.4183C30.0078 33.756 31.0922 34.8404 32.43 34.8404Z" fill="#FFD150"/>
<path d="M32.2313 28.7722C31.3423 28.8265 30.5047 29.2076 29.8797 29.8422C29.5351 30.188 29.2629 30.599 29.0792 31.0513C28.8955 31.5035 28.8039 31.9879 28.8097 32.476L26.0231 31.3825L25.8702 26.1502L29.0802 26.597L28.845 25.8562L25.0589 23.7751L24.9648 22.7051L30.5382 25.0567L32.2313 28.7722Z" fill="#FFD150"/>
<path d="M7.5745 34.8521C8.91222 34.8521 9.99666 33.7677 9.99666 32.43C9.99666 31.0922 8.91222 30.0078 7.5745 30.0078C6.23678 30.0078 5.15234 31.0922 5.15234 32.43C5.15234 33.7677 6.23678 34.8521 7.5745 34.8521Z" fill="#FFD150"/>
<path d="M11.2311 32.2294C11.1768 31.2874 10.7616 30.4027 10.0718 29.7589C9.38205 29.1151 8.47079 28.7619 7.52734 28.7725L8.62084 25.9858L13.8532 25.8683L13.4064 29.0782L14.1471 28.843L16.2283 25.057L17.2983 24.9629L14.9467 30.5362L11.2311 32.2294Z" fill="#FFD150"/>
<path d="M32.4183 9.98299C33.756 9.98299 34.8404 8.89855 34.8404 7.56083C34.8404 6.22311 33.756 5.13867 32.4183 5.13867C31.0805 5.13867 29.9961 6.22311 29.9961 7.56083C29.9961 8.89855 31.0805 9.98299 32.4183 9.98299Z" fill="#FFD150"/>
<path d="M28.7741 7.76172C28.8328 8.6473 29.2084 9.48213 29.8324 10.1133C30.1783 10.4569 30.5896 10.7276 31.042 10.9093C31.4944 11.0911 31.9787 11.1803 32.4662 11.1716L31.3844 13.97L26.1521 14.1346L26.5989 10.9246L25.8699 11.1951L23.7887 14.9929L22.7188 15.0752L25.0704 9.50191L28.7741 7.76172Z" fill="#FFD150"/>
<path d="M47.7383 10.9258H51.958V26.7548H59.9967V30.3849H47.7383V10.9258Z" fill="#454F59"/>
<path d="M73.1318 19.3891C73.1318 23.8001 68.6588 24.6654 65.1248 24.8237C65.1922 25.6526 65.583 26.4217 66.2128 26.9647C66.8425 27.5078 67.6605 27.7811 68.4901 27.7257C69.8053 27.6839 71.0774 27.2463 72.1401 26.4699L73.3111 29.1925C71.7406 30.2785 69.8717 30.8501 67.9626 30.8282C62.9833 30.8282 61 27.7257 61 23.3358C61 18.9459 63.4791 15.1152 68.2791 15.1152C71.2329 15.1152 73.1318 16.6032 73.1318 19.3891ZM68.0786 17.975C66.0848 17.975 65.0299 19.9378 64.9138 21.9639C66.8127 21.9006 69.5344 21.4363 69.5344 19.4102C69.5517 19.048 69.4249 18.6937 69.1817 18.4248C68.9386 18.1558 68.5989 17.9941 68.2369 17.975H68.0786Z" fill="#454F59"/>
<path d="M79.4197 10.0488V15.5468H83.2597V18.7126H79.4197V25.5296C79.4197 27.2286 80.0421 27.6402 81.2659 27.6402C81.9056 27.6209 82.53 27.4394 83.0803 27.1125L84.0298 29.7718C82.8583 30.4762 81.5144 30.8415 80.1476 30.8271C75.4004 30.8271 75.3477 27.6613 75.3477 25.2341V10.0488H79.4197Z" fill="#454F59"/>
<path d="M85.7386 26.4059C87.007 27.2215 88.4557 27.7142 89.9583 27.841C91.0132 27.841 91.8361 27.4084 91.8361 26.2898C91.8361 25.1712 90.7812 24.8546 89.5258 24.4747C87.3315 23.831 85.1056 22.9868 85.1056 19.8843C85.1056 16.7818 87.5636 15.1145 90.5702 15.1145C92.6159 15.0786 94.5964 15.8348 96.098 17.225L94.2308 19.5994C93.3027 18.706 92.0961 18.1584 90.8128 18.0482C89.8423 18.0482 89.0511 18.428 89.0511 19.3883C89.0511 20.5386 90.0216 20.9185 91.3297 21.3195C93.4396 21.9949 95.866 22.7863 95.866 25.836C95.866 29.139 93.5556 30.8064 90.1587 30.8064C88.188 30.8377 86.2502 30.299 84.5781 29.2551L85.7386 26.4059Z" fill="#454F59"/>
<path d="M98.5234 10.9258H102.743V26.7548H110.782V30.3849H98.5234V10.9258Z" fill="#454F59"/>
<path d="M118.705 15.1152C120.931 15.1152 125.288 15.8117 125.288 22.6076C125.288 28.1584 122.186 30.8282 118.272 30.8282C114.358 30.8282 111.742 28.3061 111.742 23.0086C111.742 16.8986 115.677 15.1152 118.705 15.1152ZM121.11 23.0403C121.11 19.8745 120.435 18.07 118.536 18.07C116.637 18.07 115.878 19.8851 115.878 22.5443C115.878 25.2036 116.257 27.8207 118.473 27.8207C120.35 27.8207 121.11 26.0056 121.11 23.0192V23.0403Z" fill="#454F59"/>
<path d="M137.695 26.3203L139.182 29.064C137.67 30.2179 135.808 30.8176 133.907 30.763C129.582 30.763 126.977 28.072 126.977 23.0701C126.977 17.2133 130.658 15.0817 133.939 15.0817C135.032 15.0451 136.115 15.2922 137.084 15.7989C138.053 16.3056 138.874 17.0547 139.467 17.9731L136.925 20.0836C136.614 19.5872 136.194 19.1684 135.696 18.8593C135.199 18.5502 134.638 18.359 134.055 18.3002C132.241 18.3002 131.038 19.8515 131.038 22.8907C131.038 25.761 132.093 27.5444 134.435 27.5444C135.629 27.5172 136.778 27.0856 137.695 26.3203Z" fill="#454F59"/>
<path d="M153.138 27.4298L153.433 30.3846H149.952L149.741 28.8966H149.593C149.161 29.5268 148.574 30.0353 147.888 30.3735C147.203 30.7116 146.443 30.868 145.679 30.8278C141.46 30.8278 140.004 27.662 140.004 23.6625C140.004 18.5128 142.578 15.1465 147.758 15.1465C149.596 15.2121 151.411 15.5682 153.138 16.2018V27.4298ZM149.097 18.4495C148.513 18.2201 147.889 18.1089 147.262 18.1223C144.857 18.1223 144.044 20.5284 144.044 23.3987C144.044 25.773 144.54 27.8519 146.703 27.8519C147.299 27.8867 147.886 27.6845 148.334 27.2893C148.782 26.8941 149.057 26.3378 149.097 25.7414V18.4495Z" fill="#454F59"/>
<path d="M160.597 10.0801V25.3815C160.597 26.9855 160.945 27.6398 162.031 27.6398C162.649 27.5892 163.253 27.4284 163.814 27.1649L164.69 29.8875C163.55 30.5071 162.273 30.8301 160.976 30.8267C156.757 30.8267 156.535 28.4207 156.535 25.9724V10.0801H160.597Z" fill="#454F59"/>
<path d="M168.349 9.17284C168.634 9.1498 168.922 9.18523 169.193 9.27696C169.465 9.36868 169.715 9.51479 169.928 9.70636C170.141 9.89793 170.313 10.1309 170.433 10.3912C170.554 10.6514 170.62 10.9335 170.627 11.2201V11.3045C170.627 11.8642 170.405 12.4011 170.009 12.7969C169.614 13.1927 169.077 13.415 168.517 13.415H168.328C167.788 13.4482 167.256 13.273 166.842 12.9254C166.428 12.5779 166.163 12.0845 166.102 11.5472C166.096 11.4629 166.096 11.3783 166.102 11.2939C166.102 10.7342 166.324 10.1974 166.72 9.80156C167.115 9.40575 167.652 9.18339 168.211 9.18339L168.349 9.17284ZM166.313 30.3838V15.5467H170.385V30.3838H166.313Z" fill="#454F59"/>
<path d="M173.55 26.4059C174.818 27.2215 176.267 27.7142 177.77 27.841C178.825 27.841 179.647 27.4084 179.647 26.2898C179.647 25.1712 178.592 24.8546 177.327 24.4747C175.132 23.831 172.917 22.9868 172.917 19.8843C172.917 16.7818 175.375 15.1145 178.381 15.1145C180.427 15.0786 182.408 15.8348 183.909 17.225L182.137 19.6205C181.209 18.7271 180.002 18.1795 178.719 18.0693C177.748 18.0693 176.957 18.4492 176.957 19.4094C176.957 20.5597 177.928 20.9396 179.236 21.3406C181.346 22.016 183.772 22.8074 183.772 25.8571C183.772 29.1601 181.462 30.8275 178.065 30.8275C176.094 30.8588 174.156 30.3201 172.484 29.2762L173.55 26.4059Z" fill="#454F59"/>
<path d="M197.424 19.3891C197.424 23.8001 192.951 24.6654 189.406 24.8237C189.473 25.6526 189.864 26.4217 190.494 26.9647C191.124 27.5078 191.942 27.7811 192.771 27.7257C194.09 27.6861 195.366 27.2483 196.432 26.4699L197.603 29.1925C196.029 30.2787 194.156 30.8502 192.244 30.8282C187.275 30.8282 185.281 27.7257 185.281 23.3358C185.281 18.9459 187.771 15.1152 192.571 15.1152C195.525 15.1152 197.424 16.6032 197.424 19.3891ZM192.36 17.975C190.377 17.975 189.322 19.9378 189.195 21.9639C191.094 21.9006 193.816 21.4363 193.816 19.4102C193.833 19.048 193.706 18.6937 193.463 18.4248C193.22 18.1558 192.88 17.9941 192.518 17.975H192.36Z" fill="#454F59"/>
</svg>
